<mxfile host="app.diagrams.net" agent="Mozilla/5.0 (Windows NT 10.0; Win64; x64) AppleWebKit/537.36 (KHTML, like Gecko) Chrome/140.0.0.0 Safari/537.36 Edg/140.0.0.0" version="28.2.8">
  <diagram name="第 1 页" id="fLsZW9haGC80zDqefz6L">
    <mxGraphModel dx="2058" dy="1276" grid="1" gridSize="10" guides="1" tooltips="1" connect="1" arrows="1" fold="1" page="1" pageScale="1" pageWidth="827" pageHeight="1169" math="0" shadow="0">
      <root>
        <mxCell id="0" />
        <mxCell id="1" parent="0" />
        <mxCell id="v6Isb5GvYnwfADmET_lC-1" value="数据开发方" style="rounded=1;whiteSpace=wrap;html=1;fillColor=#0050ef;fontColor=#FFFFFF;strokeColor=none;arcSize=50;fontSize=20;shadow=1;shadowOffsetX=0;shadowOffsetY=0;shadowBlur=12;shadowOpacity=34;" parent="1" vertex="1">
          <mxGeometry x="330" y="190" width="120" height="60" as="geometry" />
        </mxCell>
      </root>
    </mxGraphModel>
  </diagram>
</mxfile>
